<?xml version="1.0" encoding="UTF-8"?>
<svg id="Calque_4" data-name="Calque 4" xmlns="http://www.w3.org/2000/svg" viewBox="0 0 528.85 683.68">
  <defs>
    <style>
      .cls-1, .cls-2, .cls-3, .cls-4, .cls-5 {
        stroke: #fff;
        stroke-miterlimit: 10;
      }

      .cls-1, .cls-3, .cls-6 {
        fill: #0e1116;
      }

      .cls-1, .cls-5 {
        stroke-width: 8px;
      }

      .cls-7, .cls-2, .cls-4 {
        fill: #fff;
      }

      .cls-2, .cls-3 {
        stroke-width: 4px;
      }

      .cls-4 {
        stroke-width: 2px;
      }

      .cls-5 {
        fill: #0e0e0e;
      }
    </style>
  </defs>
  <path class="cls-5" d="M374.8,361.33c8.12-7.66,19.25-20.14,28.5-38.6,6.7-13.37,10.45-25.96,12.63-35.8.24,9.51-.25,21.14-2.61,34.03-4.44,24.31-13.51,42.19-20.33,53.21"/>
  <path class="cls-5" d="M370.64,305.58c0-2.43.89-2.79,1.47-7.54.45-3.68.45-6.96.12-12.51-.41-7.01-1.03-12.2-1.12-13.09-1.14-10.46,3.43-29.15,16.92-37.88,11.48-7.43,24.16-4.25,27.77-3.2,10.66-1.32,19.08.66,23.99,2.27,5.17,1.69,18.91,6.41,29.3,21.34,4.92,7.07,7.42,14.04,8.72,18.55,1.33,4.66,2.73,11.82,1.54,20.11-1.12,7.82-3.81,11.51-12.6,27.03-12.95,22.87-12.57,24.51-16.64,26.63-10.79,5.62-25.3-.32-30.75-3.69-5.76-3.56-6.07-5.54-12.3-8.6-8.61-4.23-10.96-1.88-17.9-5.02-7.94-3.59-18.48-12.82-18.51-24.42Z"/>
  <path class="cls-5" d="M497.08,578.83c-.03-.7.2-2.06-.05-3.82-.3-2.19-.87-2.67-1.19-4.5-.46-2.58.35-3.39.29-5.82-.07-2.69-1.14-4.64-2.17-6.53-1.31-2.4-4.52-6.17-9.06-8.65-4.12-16.06-11.08-34.18-22.87-52.61-7.22-11.29-15.05-20.83-22.59-28.76-.73-2.61-2.92-5.23-3.64-7.84-5.83-22.87-13.12-44.44-22.59-66.01-2.63-5.3-9.21-14.63-9.21-14.63l-12.87-12.44-5.92-4.66c-5.6-3.28-14.87-7.77-27.19-9.55-8.28-1.2-14.8-.72-21.68-.17-6.33.5-10.69,1.36-12.06,1.58-17.44,2.77-41.1-17.78-47.01-23-40.03-35.38-60.05-53.08-63.8-65.61-9.71-32.47,11.41-45.44-.47-75.09-10.81-26.98-41.18-47.6-60.02-41.55-3.38,1.09-4.16,2.51-7.12,4.69,0,0-1.33,1.12-5.35,3.23-2.17,1.14-12.21,5.15-24.04,3.61-11.58-1.51-21.71-7.39-41.43-18.83-4.21-2.44-6.8-4.06-10.13-3.4-8.39,1.67-15.93,16.74-14.56,29.12,1.33,11.97,10.42,15.59,52.7,50.26,7.84,6.43,20.26,16.95,30.82,33.76,5.06,8.05,8.63,15.86,8.14,25.05-.43,8.08-4.3,13.56-6.71,18.76-6.58,14.19-14.44,22.5-22.94,39.05-16.31,31.72-15.16,70.28-6.17,96.12,2.8,8.03,6.1,14.28,8.59,18.48-8.59,4.42-21.04,12.12-33.26,25.01-2.71,2.86-5.16,5.72-7.41,8.56-9.66-.88-17.27,5.38-20.31,10.52-3.48,5.87-1.73,11.52-1.73,11.52.32,1.54.96,3.33.77,6.02-.17,2.48-.8,2.24-1.39,5.52,0,0-.98,5.44.53,9.54.25.67.55,1.3.55,1.3.45.9,2.99,5.97,8.27,9.11.98,8.02,1.96,16.04,2.94,24.06-2.75,1.74-12.88,8.58-14.07,19.9-.37,3.56-.17,10.46,3.09,11.8,1.53.63,3.91.1,14.98-10.54,9.17-8.81,13.76-13.22,15.31-17.07,4.11-10.17.45-20.64-1.76-25.61-.07-1.24-.14-2.47-.21-3.71,1.5-.98,2.56-1.91,3.09-2.39,3.31-3.03,4.54-7.39,6.88-15.99.16-.58.73-1.62.96-3.14.29-1.89-.12-2.46.05-4.07.25-2.26,1.22-2.67,1.8-4.68.64-2.23.14-4.16-.34-6.04-.29-1.15-.93-2.7-1.91-4.38.41-.48.82-.97,1.23-1.45,11.32-8.82,20.75-10.93,27.38-11.17,7.94-.28,9.65,2.19,25.5,3.46,4.62.37,10.31.44,21.5.57,8.92.1,16.32.1,21.5.08,7.28,28.48,14.56,56.43,22.16,84.6-3.35,2.4-5.92,5.38-7.46,8.07-3.91,6.86-1.95,13.33-1.95,13.33.36,1.77,1.08,3.81.86,6.92-.19,2.87-.9,2.61-1.56,6.4,0,0-1.1,6.3.59,10.99.28.77.62,1.49.62,1.49.52,1.07,3.6,7.34,10.08,10.77l-.17,7.51c-.84,4.03-1.68,8.07-2.52,12.1-1.52-1.03-6.71-4.24-13.67-3.31-5.77.78-9.6,3.97-11.06,5.34-3.82,4.78-3.97,7.54-3.38,9.19,1.68,4.75,14.79,3.73,41,1.69.87-.07,2.76-.24,4.26-1.64,1.69-1.58,2.02-3.92,2.32-6.92.55-5.54.83-8.31.65-10.61-.18-2.34.01-6.38,1.09-13.55,3.53-1.77,6.03-4.01,6.97-4.92,3.71-3.58,5.11-8.64,7.73-18.62.18-.68.82-1.89,1.08-3.65.32-2.19-.13-2.84.06-4.69.28-2.61,1.37-3.11,2.02-5.44.72-2.58.16-4.8-.38-6.96-.86-3.44-4.27-9.92-10.56-14.14.69-20.61,1.9-41.74,3.73-63.39.78-9.28,1.66-18.45,2.63-27.5,7.51-3.97,18.98-9.51,33.78-14.63,11.77-4.07,17.65-6.11,21.95-6.04,15.61.24,18.86,12.28,53.85,39.37,9.55,7.4,15.96,11.64,24.78,20.91,7.46,7.84,12.67,15.09,16.03,20.26.15,2.47.26,4.94.35,7.41-5.68,2.43-10.04,7.27-12.21,11.42-3.61,6.9-1.92,13.33-1.92,13.33.3,1.76.92,3.79.69,6.9-.21,2.86-.85,2.62-1.49,6.41,0,0-1.07,6.3.4,10.96.24.76.54,1.48.54,1.48.44,1.01,2.91,6.67,8.13,10.08l-3.75,16.65c-2.38,1.35-4.76,2.7-7.14,4.05-2.27-1.29-5.78-2.94-10.3-3.78-3.22-.6-10.58-1.86-18.23,1.97-5.88,2.94-13.64,9.73-12.64,13.99,1.1,4.74,13.54,8.67,65.49,4.17,1.56-5.4,3.12-10.8,4.67-16.2l2.48-22.86c1.59-1.23,2.72-2.37,3.27-2.96,3.39-3.63,4.71-8.7,7.2-18.7.17-.68.76-1.9,1.02-3.66.32-2.19-.09-2.83.11-4.68.28-2.61,1.28-3.12,1.89-5.46.68-2.59.21-4.8-.25-6.94-.62-2.88-2.85-7.91-6.9-11.88,2.56-14.68,4.15-22.07.27-31.29-3.31-7.85-7.8-10.42-15.98-18.62-25.82-25.89-34.05-53.44-33.97-53.48.08-.04,11.11,27.32,29,41.88,12.42,10.11,28.42,21.71,28.42,21.71h0c2.47,1.76,7.49,5.29,12.47,11.2,3.21,3.81,5.83,7.91,7.94,12.33,3.98,8.91,8.6,17.44,12.87,25.95-1.14,2.32-1.93,4.65-2.33,6.71-1.52,7.77,1.87,13.34,1.87,13.34.78,1.58,1.93,3.31,2.58,6.35.59,2.8-.08,2.77.36,6.6,0,0,.73,6.36,3.43,10.32.44.65.93,1.23.93,1.23.4.46,1.83,2.15,4.08,3.8l1.41,23.62c-1.29.93-2.57,1.86-3.86,2.79-1.84-1.64-5.13-4.17-9.81-5.56-7.1-2.11-17.2-1.57-23.6,5.29-.67.72-6.63,7.23-5.12,11.71,1.85,5.49,15.21,8.89,63.3,1.25.08-13.68.16-27.36.24-41.05,2.91-2.96,4.65-6.24,5.26-7.48,2.23-4.57,2.07-9.84,1.67-20.19Z"/>
  <path class="cls-1" d="M284.49,114.67c3.14,3.62,9.31,10.72,13.27,21.81,3.36,9.4,2.19,13.4,6.37,24.39,2.78,7.31,7.3,19.19,13.45,19.22,6.15.03,10.44-11.82,10.65-12.41,5.27-14.99-4.22-30.02-6.15-32.96,11.61-2,29.12-5.99,49.21-14.66,23.27-10.04,39.28-17.02,42.14-30.81,2.57-12.41-7.13-24.23-19.99-39.94-11.43-13.95-18.8-22.94-30.93-25.32-15.73-3.09-29.17,6.65-44.78,18.07-10.12,7.4-25.52,20.65-39.57,42.67-1.81-1.47-15.42-12.15-30.68-7.04-3.36,1.12-9.97,3.39-10.19,7.06-.45,7.64,27.59,7.31,47.2,29.91Z"/>
  <ellipse class="cls-2" cx="170.64" cy="225.18" rx="4.86" ry="5.24"/>
  <ellipse class="cls-2" cx="173.94" cy="234.48" rx="3.3" ry="3.55"/>
  <ellipse class="cls-2" cx="178.52" cy="240.02" rx="2.24" ry="2.54"/>
  <path class="cls-7" d="M0,234.72c1.68.33,8.25,2.02,13.34,12.82,3.82,8.09,4.78,17.02,5.07,20.7.17-3.48.88-12.71,4.66-21.16,4.83-10.78,11.23-12.62,12.79-12.98-1.34-.08-7.7-.75-12.77-10.75-4.59-9.04-5.12-19.79-5.21-22.64-.13,2.93-.83,14.16-5.79,23.46-4.83,9.06-10.53,10.31-12.09,10.55Z"/>
  <path class="cls-7" d="M98.99,87.17c1.33.27,6.55,1.63,10.6,10.35,3.03,6.54,3.8,13.74,4.03,16.72.14-2.81.7-10.27,3.7-17.09,3.83-8.71,8.92-10.19,10.16-10.48-1.06-.07-6.11-.61-10.14-8.68-3.65-7.3-4.07-15.98-4.14-18.28-.11,2.36-.66,11.44-4.6,18.94-3.84,7.31-8.36,8.32-9.6,8.52Z"/>
  <path class="cls-7" d="M55.94,289.86c1.08.21,5.29,1.3,8.55,8.21,2.45,5.19,3.07,10.91,3.25,13.27.11-2.23.56-8.15,2.99-13.56,3.09-6.91,7.2-8.09,8.2-8.32-.86-.05-4.93-.48-8.19-6.89-2.94-5.8-3.28-12.68-3.34-14.51-.09,1.88-.53,9.07-3.71,15.03-3.1,5.8-6.75,6.6-7.75,6.76Z"/>
  <circle class="cls-3" cx="163.76" cy="191.75" r="26.9"/>
  <path class="cls-4" d="M163.13,170.7c.26.45-12.3,4.21-15.82,14.56-3.6,10.59,4.48,21.59,4.11,21.74-.39.16-10.51-11.63-6.29-23.11,3.96-10.75,17.73-13.65,18-13.19Z"/>
  <path class="cls-5" d="M161.29,111.2c-3.2,1.51-9.92,5.31-12.66,12.97-3.58,10,1.94,20.17,6.02,27.68,12.2,22.45,33.07,33.99,33.07,33.99,3.11,1.72,5.86,2.95,7.96,4.31,0,0,2.46,2.21,4.06,5.15,4.47,8.23-2.17,23.15-3.62,26.31-6.44,14.1-10.46,16.87-16.67,27.98-6.58,11.78-13.75,24.63-12.5,40.12,1.55,19.18,15.14,31.77,17.86,34.29,14.45,13.39,36.75,19.97,55.6,14.26,17.9-5.42,28.32-25.83,49.17-66.64,17.29-33.86,17.63-46.22,16.07-53.58-3.54-16.72-12.99-34.43-12.99-34.43,0,0,0,0,0,0-2.3-4.71-5.05-8.08-7.58-15.72-2.4-7.25-2.5-12-3.11-15.83-3.18-19.88-23.42-35.49-35.88-41.89-8.11-4.17-10.84-3.36-20.62-9.27-10.46-6.31-10.54-9.16-17.82-11.82-11.67-4.26-22.27-.87-26.3.41-4.05,1.29-8.3,2.84-12.42,7.04-5.18,5.28-6.97,11.62-7.63,14.69Z"/>
  <g>
    <path class="cls-6" d="M144.11,278.29c2.36-.57,4.75-.92,7.14-1.07.65-.04,1.34-.05,1.86.39.54.45.79,1.27,1.21,1.88,1.3,1.87,3.76,1.33,5.68.37s4.02-2.22,5.88-1.32"/>
    <path class="cls-7" d="M145.1,281.91c1.96-.43,5.04-1.51,7.01-.68l-2.24-1.72c1.74,2.36,2.89,4.46,6.07,4.88,1.38.18,2.74-.04,4.06-.47s3.38-2.15,4.88-1.76c4.67,1.23,6.66-6,1.99-7.23-2.29-.61-4.23-.35-6.41.56-.87.36-2.03,1.37-2.95,1.32-.87-.04-.63-.5-1.46-1.46-2.94-3.44-9.24-1.48-12.94-.66-4.71,1.04-2.72,8.27,1.99,7.23h0Z"/>
  </g>
</svg>